<svg xmlns:xlink="http://www.w3.org/1999/xlink" xmlns="http://www.w3.org/2000/svg" viewBox="0 0 370 49.603330824110245" preserveAspectRatio="xMidYMid meet" class="css-1cs2450" id="ehehagbf" width="370"  height="49.603330824110245" ><defs id="SvgjsDefs1980"></defs><g id="SvgjsG1981" featurekey="symbolFeature-0" transform="matrix(0.5555555555555556,0,0,0.5555555555555556,-2.7777777777777777,-2.976111306084527)" fill="#1989AC"><g xmlns="http://www.w3.org/2000/svg" fill="#1989AC"><polygon points="46.709,94.643 46.727,94.622 46.69,94.622  " fill="#1989AC"></polygon><path d="M59.138,61.713c0-2.916,1.159-5.562,3.019-7.532c-1.676-0.652-3.389-1.229-5.156-1.683   c7.545-5.078,12.742-15.088,12.742-24.103c0-12.721-10.316-23.038-23.033-23.038c-12.718,0-23.034,10.314-23.034,23.038   c0,9.015,5.197,19.024,12.743,24.103C18.374,57.077,5,72.742,5,84.352c0,6.857,20.843,10.271,41.693,10.271L35.025,82.957   l9.835-23.779H44.76l-3.822-4.382c1.85,0.663,3.773,1.063,5.771,1.063c1.997,0,3.918-0.399,5.763-1.06l-3.822,4.374h-0.093   l9.836,23.779l-11.67,11.669c5.438,0,10.875-0.225,15.947-0.689c-2.162-2.013-3.535-4.856-3.535-8.039v-24.18H59.138z" fill="#1989AC"></path><path d="M87.455,54.171H70.16c-4.16,0-7.543,3.385-7.543,7.542v24.182c0,4.16,3.383,7.545,7.543,7.545h17.295   c4.16,0,7.545-3.385,7.545-7.545V61.713C95,57.553,91.615,54.171,87.455,54.171z M92.846,85.895c0,2.971-2.416,5.383-5.391,5.383   H70.16c-2.971,0-5.388-2.412-5.388-5.383V61.713c0-2.974,2.417-5.391,5.388-5.391h17.295c2.975,0,5.391,2.417,5.391,5.391V85.895z" fill="#1989AC"></path><path d="M71.49,78.477h-2.445c-0.558,0-1.006,0.285-1.006,0.633v1.543c0,0.348,0.448,0.633,1.006,0.633h2.445   c0.553,0,1.006-0.285,1.006-0.633v-1.543C72.496,78.762,72.043,78.477,71.49,78.477z" fill="#1989AC"></path><path d="M87.916,60.407H69.697c-1.195,0-2.172,0.874-2.172,1.943v4.731c0,1.066,0.977,1.94,2.172,1.94h18.219   c1.197,0,2.176-0.874,2.176-1.94v-4.731C90.092,61.284,89.113,60.407,87.916,60.407z" fill="#1989AC"></path><path d="M77.189,78.477h-2.454c-0.555,0-1,0.285-1,0.633v1.543c0,0.348,0.445,0.633,1,0.633h2.454c0.551,0,1.006-0.285,1.006-0.633   v-1.543C78.195,78.762,77.74,78.477,77.189,78.477z" fill="#1989AC"></path><path d="M82.879,78.477H80.43c-0.555,0-1.008,0.285-1.008,0.633v1.543c0,0.348,0.453,0.633,1.008,0.633h2.449   c0.553,0,1.008-0.285,1.008-0.633v-1.543C83.887,78.762,83.432,78.477,82.879,78.477z" fill="#1989AC"></path><path d="M88.576,78.477h-2.451c-0.553,0-1.006,0.285-1.006,0.633v1.543c0,0.348,0.453,0.633,1.006,0.633h2.451   c0.551,0,1.006-0.285,1.006-0.633v-1.543C89.582,78.762,89.127,78.477,88.576,78.477z" fill="#1989AC"></path><path d="M69.039,76.32h2.446c0.556,0,1.007-0.284,1.007-0.635v-1.54c0-0.351-0.451-0.636-1.007-0.636h-2.446   c-0.552,0-1.006,0.285-1.006,0.636v1.54C68.033,76.036,68.487,76.32,69.039,76.32z" fill="#1989AC"></path><path d="M74.735,76.32h2.448c0.551,0,1.006-0.284,1.006-0.635v-1.54c0-0.351-0.455-0.636-1.006-0.636h-2.448   c-0.558,0-1.007,0.285-1.007,0.636v1.54C73.729,76.036,74.179,76.32,74.735,76.32z" fill="#1989AC"></path><path d="M80.426,76.32h2.447c0.559,0,1.006-0.284,1.006-0.635v-1.54c0-0.351-0.447-0.636-1.006-0.636h-2.447   c-0.555,0-1.006,0.285-1.006,0.636v1.54C79.42,76.036,79.871,76.32,80.426,76.32z" fill="#1989AC"></path><path d="M86.123,76.32h2.449c0.551,0,1.006-0.284,1.006-0.635v-1.54c0-0.351-0.455-0.636-1.006-0.636h-2.449   c-0.551,0-1.008,0.285-1.008,0.636v1.54C85.115,76.036,85.572,76.32,86.123,76.32z" fill="#1989AC"></path><path d="M71.485,82.063h-2.44c-0.558,0-1.012,0.285-1.012,0.637v1.54c0,0.35,0.454,0.636,1.012,0.636h2.44   c0.558,0,1.007-0.293,1.007-0.636v-1.54C72.492,82.348,72.043,82.063,71.485,82.063z" fill="#1989AC"></path><path d="M77.184,82.063h-2.454c-0.548,0-0.993,0.285-0.993,0.637v1.54c0,0.35,0.445,0.636,0.993,0.636h2.454   c0.557,0,1.006-0.293,1.006-0.636v-1.54C78.189,82.348,77.74,82.063,77.184,82.063z" fill="#1989AC"></path><path d="M82.879,82.063H80.43c-0.555,0-1.008,0.285-1.008,0.637v1.54c0,0.35,0.453,0.636,1.008,0.636h2.449   c0.553,0,1.008-0.293,1.008-0.636v-1.54C83.887,82.348,83.432,82.063,82.879,82.063z" fill="#1989AC"></path><path d="M88.57,82.063h-2.445c-0.553,0-1.01,0.285-1.01,0.637v1.54c0,0.35,0.457,0.636,1.01,0.636h2.445   c0.557,0,1.008-0.293,1.008-0.636v-1.54C89.578,82.348,89.127,82.063,88.57,82.063z" fill="#1989AC"></path><path d="M71.485,85.648h-2.446c-0.552,0-1.006,0.285-1.006,0.632v1.544c0,0.347,0.454,0.632,1.006,0.632h2.446   c0.556,0,1.003-0.285,1.003-0.632V86.28C72.488,85.934,72.041,85.648,71.485,85.648z" fill="#1989AC"></path><path d="M77.184,85.648h-2.454c-0.548,0-1,0.285-1,0.632v1.544c0,0.347,0.452,0.632,1,0.632h2.454c0.557,0,1.006-0.285,1.006-0.632   V86.28C78.189,85.934,77.74,85.648,77.184,85.648z" fill="#1989AC"></path><path d="M82.873,85.648h-2.447c-0.555,0-1.006,0.285-1.006,0.632v1.544c0,0.347,0.451,0.632,1.006,0.632h2.447   c0.559,0,1.006-0.285,1.006-0.632V86.28C83.879,85.934,83.432,85.648,82.873,85.648z" fill="#1989AC"></path><path d="M88.57,85.648h-2.447c-0.551,0-1.008,0.285-1.008,0.632v1.544c0,0.347,0.457,0.632,1.008,0.632h2.447   c0.549,0,1.006-0.285,1.006-0.632V86.28C89.576,85.934,89.119,85.648,88.57,85.648z" fill="#1989AC"></path></g></g><g id="SvgjsG1982" featurekey="nameFeature-0" transform="matrix(0.9320243427646946,0,0,0.9320243427646946,69.06797626831809,0.48017855456586034)" fill="#111111"><path d="M13.24 35 c0 -1.2 -0.4 -2.68 -4.68 -4.88 c-3.52 -1.84 -7.12 -3.72 -7.12 -8.6 c0 -4.56 4.04 -7 7.96 -7 c2.92 0 4.32 1 5.32 1 c0.52 0 0.96 -0.24 1 -0.68 l2.16 0 l0.36 6.24 l-1.32 -0.04 c-0.84 -0.04 -1.32 -0.24 -1.76 -1.12 c-1.16 -2.52 -2.72 -3.24 -4.08 -3.24 c-1.92 0 -3 1.24 -3 2.64 c0 2 1.64 3.16 4.36 4.4 c2.76 1.36 7.88 3.36 7.88 8.96 c0 5.88 -5.4 7.92 -8.52 7.92 c-3.88 0 -5.32 -1.6 -6.64 -1.6 c-1.24 0 -1.4 0.6 -1.48 1.04 l-2.24 0 l-0.44 -6.56 l1.68 0 c0.92 0 1.4 0.16 1.6 0.88 c0.68 2.8 3.76 3.88 5.92 3.88 c1.68 0 3.04 -1.16 3.04 -3.24 z M57.160000000000004 36.48 c0 1 1.08 1.32 2.68 1.48 l0 2.04 c-4.16 -0.12 -8.28 -0.12 -12.44 0 l0 -2.04 c1.48 0.04 2.64 -0.48 2.64 -1.48 l0 -8.44 c0 -2.92 -0.08 -5.24 -1.64 -5.24 c-1.76 0 -3.32 3.04 -4 4.56 l0 9.12 c0 1 1.08 1.52 2.68 1.48 l0 2.04 c-4.16 -0.12 -8.28 -0.12 -12.44 0 l0 -2.04 c1.48 0.04 2.64 -0.48 2.64 -1.48 l0 -8.44 c0 -2.92 -0.08 -5.24 -1.6 -5.24 c-1.92 0 -3.36 3.04 -4.04 4.56 l0 9.12 c0 1 1.08 1.52 2.68 1.48 l0 2.04 c-4.16 -0.12 -8.28 -0.12 -12.44 0 l0 -2.04 c1.48 -0.16 2.64 -0.48 2.64 -1.48 l0 -10.12 c0 -1.64 -1.12 -1.88 -2.6 -1.6 l0 -2.04 c4.88 -1.08 7.04 -3.4 8.28 -3.4 c1.16 0 1.64 0.76 1.44 2.08 l-0.36 3.04 c0.84 -1.56 3.12 -4.84 7.76 -4.84 c2.8 0 4.28 1.96 5.04 4.84 c0.84 -1.52 3 -4.84 7.8 -4.84 c3.24 0 5.28 2.36 5.28 6.84 l0 10.04 z M80.56 33.8 c0 1.56 1.12 1.96 2.68 1.56 l0 2.24 c-4.64 1.2 -7.24 2.96 -8.24 2.96 c-1.2 0 -1.72 -0.68 -1.6 -2.04 l0.32 -2.84 c-0.76 2.36 -2.16 4.88 -6.12 4.88 c-3.4 0 -6.16 -1.72 -6.16 -5.16 c0 -4.2 3.4 -6.4 11.96 -8.12 l-0.08 -3.72 c-0.08 -1.92 -0.84 -2.2 -1.52 -2.2 c-4.56 0 -1 6.36 -6.52 6.36 c-1.96 0 -2.84 -1.04 -2.84 -2.6 c0 -3.08 4.28 -5.52 9.88 -5.52 c4.12 0 8.24 0.4 8.24 5.04 l0 9.16 z M70.44 37.44 c2 0 2.84 -3.28 2.96 -4.84 l0 -3.64 c-4.44 0.84 -4.88 4.28 -4.88 5.76 c0 1.56 0.72 2.72 1.92 2.72 z M100.56 19.56 c1.88 0 3.48 1.28 3.48 3.28 c0 2.2 -1.96 3 -3.04 3 c-1.76 0 -2.72 -0.92 -3.64 -0.92 c-2.52 0 -2.72 2.76 -2.92 4.08 l0 7.48 c0 1 1 1.32 2.72 1.48 l0 2.04 c-4.12 -0.08 -8.32 -0.08 -12.44 0 l0 -2.04 c1.44 -0.16 2.52 -0.48 2.52 -1.48 l0 -10.08 c0 -1.64 -1.12 -1.88 -2.6 -1.6 l0 -2.04 c4.88 -1.08 7.08 -3.44 8.36 -3.44 c1.16 0 1.6 0.76 1.44 2.08 l-0.6 4.36 c1.48 -4.56 3.68 -6.2 6.72 -6.2 z M118.36 38.96 c-1.12 0.84 -2.72 1.32 -4.6 1.32 c-4.2 0 -6.64 -2.32 -6.64 -6.96 l0 -11.16 l-1.4 0 c-0.52 0 -0.68 -0.24 -0.68 -0.76 l0 -0.68 c0 -0.52 0.16 -0.76 0.68 -0.76 c3.44 0 4.8 -2.44 5.12 -5.44 l3.44 0 l0 5.44 l3.32 0 c0.52 0 0.68 0.24 0.68 0.76 l0 0.68 c0 0.52 -0.16 0.76 -0.68 0.76 l-3.32 0 l0 11.92 c0 2.08 0.12 3.6 1.76 3.6 c0.64 0 1.64 -0.32 2.32 -0.92 l0 2.2 z M142.48000000000002 33.2 l2.64 0 c-1 3.68 -4.12 7.52 -10.72 7.52 c-8.12 0 -13.52 -4.76 -13.52 -13.2 c0 -7.52 5.76 -13 12.72 -13 c3.52 0 4.92 1.08 7.04 1.08 c0.6 0 1.04 0 2.6 -0.4 c0.04 2.36 0.6 4.84 1.56 7.12 l-4 0 c-1.64 -3.16 -4 -5.52 -6.84 -5.52 c-4 0 -5.2 3.92 -5.2 9.6 c0 6.24 2 11.96 7.12 11.96 c2.08 0 5.12 -1 6.6 -5.16 z M166.04000000000002 33.8 c0 1.56 1.12 1.96 2.68 1.56 l0 2.24 c-4.64 1.2 -7.24 2.96 -8.24 2.96 c-1.2 0 -1.72 -0.68 -1.6 -2.04 l0.32 -2.84 c-0.76 2.36 -2.16 4.88 -6.12 4.88 c-3.4 0 -6.16 -1.72 -6.16 -5.16 c0 -4.2 3.4 -6.4 11.96 -8.12 l-0.08 -3.72 c-0.08 -1.92 -0.84 -2.2 -1.52 -2.2 c-4.56 0 -1 6.36 -6.52 6.36 c-1.96 0 -2.84 -1.04 -2.84 -2.6 c0 -3.08 4.28 -5.52 9.88 -5.52 c4.12 0 8.24 0.4 8.24 5.04 l0 9.16 z M155.92000000000002 37.44 c2 0 2.84 -3.28 2.96 -4.84 l0 -3.64 c-4.44 0.84 -4.88 4.28 -4.88 5.76 c0 1.56 0.72 2.72 1.92 2.72 z M178.72000000000003 34.4 c0 1.56 1.12 1.84 2.68 1.72 l0 2 c-4.52 1 -7.2 2.44 -8.2 2.44 c-1.12 0 -1.48 -0.48 -1.48 -1.72 l0 -19.44 c0 -1.64 -1.12 -1.92 -2.6 -1.64 l0 -2 c4.88 -1.12 6.88 -3.4 8.24 -3.4 c1.08 0 1.36 0.6 1.36 1.76 l0 20.28 z M200.76000000000002 35.24 c0.92 0 1.32 0.84 0.84 1.6 c-1.68 2.24 -4.24 3.56 -7.52 3.56 c-5.2 0 -11.08 -3.04 -11.08 -10.6 c0 -7.04 5.88 -10.16 10.64 -10.16 c4.72 0 8.68 2.2 8.72 5.72 c0 1.32 -0.72 2.56 -3.12 2.56 c-2.16 0 -3.04 -1.24 -2.92 -2.64 c0.16 -1.72 0.08 -3.56 -2.04 -3.56 c-2.84 0 -3.6 3.48 -3.6 8.2 c0 3.52 0.72 8.44 4.12 8.44 c2.68 0 3.6 -1.2 4 -2.48 c0.16 -0.44 0.48 -0.64 0.84 -0.64 l1.12 0 z M226.76 34.08 c0 1.6 1.12 1.96 2.68 1.6 l0 1.92 c-4.64 1.2 -7.4 2.96 -8.2 2.96 c-1.24 0 -1.84 -0.84 -1.68 -2.24 l0.48 -2.56 c-0.96 1.72 -3 4.96 -7 4.96 c-2.96 0 -6.56 -1.44 -6.56 -7.24 l0 -10.04 c0 -0.8 -0.32 -1.2 -1.12 -1.16 l-1.2 0.04 l0 -2 l8.16 -0.52 c0.64 -0.04 1.32 0.36 1.32 1.24 l0 11.6 c0 2.56 -0.32 4.96 1.72 4.96 s3.84 -3.92 4.28 -5.04 l0 -9.12 c0 -0.8 -0.4 -1.2 -1.2 -1.16 l-1.12 0.04 l0 -2 l8.12 -0.52 c0.56 -0.04 1.32 0.36 1.32 1.24 l0 13.04 z M239.44 34.4 c0 1.56 1.12 1.84 2.68 1.72 l0 2 c-4.52 1 -7.2 2.44 -8.2 2.44 c-1.12 0 -1.48 -0.48 -1.48 -1.72 l0 -19.44 c0 -1.64 -1.12 -1.92 -2.6 -1.64 l0 -2 c4.88 -1.12 6.88 -3.4 8.24 -3.4 c1.08 0 1.36 0.6 1.36 1.76 l0 20.28 z M263.03999999999996 33.8 c0 1.56 1.12 1.96 2.68 1.56 l0 2.24 c-4.64 1.2 -7.24 2.96 -8.24 2.96 c-1.2 0 -1.72 -0.68 -1.6 -2.04 l0.32 -2.84 c-0.76 2.36 -2.16 4.88 -6.12 4.88 c-3.4 0 -6.16 -1.72 -6.16 -5.16 c0 -4.2 3.4 -6.4 11.96 -8.12 l-0.08 -3.72 c-0.08 -1.92 -0.84 -2.2 -1.52 -2.2 c-4.56 0 -1 6.36 -6.52 6.36 c-1.96 0 -2.84 -1.04 -2.84 -2.6 c0 -3.08 4.28 -5.52 9.88 -5.52 c4.12 0 8.24 0.4 8.24 5.04 l0 9.16 z M252.92 37.44 c2 0 2.84 -3.28 2.96 -4.84 l0 -3.64 c-4.44 0.84 -4.88 4.28 -4.88 5.76 c0 1.56 0.72 2.72 1.92 2.72 z M279.84000000000003 38.96 c-1.12 0.84 -2.72 1.32 -4.6 1.32 c-4.2 0 -6.64 -2.32 -6.64 -6.96 l0 -11.16 l-1.4 0 c-0.52 0 -0.68 -0.24 -0.68 -0.76 l0 -0.68 c0 -0.52 0.16 -0.76 0.68 -0.76 c3.44 0 4.8 -2.44 5.12 -5.44 l3.44 0 l0 5.44 l3.32 0 c0.52 0 0.68 0.24 0.68 0.76 l0 0.68 c0 0.52 -0.16 0.76 -0.68 0.76 l-3.32 0 l0 11.92 c0 2.08 0.12 3.6 1.76 3.6 c0.64 0 1.64 -0.32 2.32 -0.92 l0 2.2 z M291.44000000000005 19.64 c4.48 0 10.44 2.68 10.44 10.16 c0 7.52 -5.96 10.6 -10.48 10.6 c-4.48 0 -10.44 -3.08 -10.44 -10.28 c0 -7.8 5.96 -10.48 10.48 -10.48 z M294.32000000000005 31.64 c0 -6.2 -1.28 -9.92 -3.36 -9.92 c-1.76 0 -2.4 2.8 -2.4 6.72 c0 6.04 1.28 9.92 3.36 9.92 c1.88 0 2.4 -2.84 2.4 -6.72 z M319.4000000000001 19.56 c1.88 0 3.48 1.28 3.48 3.28 c0 2.2 -1.96 3 -3.04 3 c-1.76 0 -2.72 -0.92 -3.64 -0.92 c-2.52 0 -2.72 2.76 -2.92 4.08 l0 7.48 c0 1 1 1.32 2.72 1.48 l0 2.04 c-4.12 -0.08 -8.32 -0.08 -12.44 0 l0 -2.04 c1.44 -0.16 2.52 -0.48 2.52 -1.48 l0 -10.08 c0 -1.64 -1.12 -1.88 -2.6 -1.6 l0 -2.04 c4.88 -1.08 7.08 -3.44 8.36 -3.44 c1.16 0 1.6 0.76 1.44 2.08 l-0.6 4.36 c1.48 -4.56 3.68 -6.2 6.72 -6.2 z" fill="#111111"></path></g></svg>